<svg viewBox="0 0 200 200" xmlns="http://www.w3.org/2000/svg">
  <!-- Theater marquee background -->
  <defs>
    <linearGradient id="marqueeGrad" x1="0%" y1="0%" x2="100%" y2="100%">
      <stop offset="0%" stop-color="#FFA500"/>
      <stop offset="50%" stop-color="#FFD700"/>
      <stop offset="100%" stop-color="#FFA500"/>
    </linearGradient>
    <linearGradient id="popcornGrad" x1="0%" y1="0%" x2="0%" y2="100%">
      <stop offset="0%" stop-color="#FFD700"/>
      <stop offset="50%" stop-color="#FFA500"/>
      <stop offset="100%" stop-color="#FF8C00"/>
    </linearGradient>
  </defs>
  
  <!-- Marquee border with lights -->
  <rect x="20" y="50" width="160" height="100" fill="url(#marqueeGrad)" rx="10"/>
  <rect x="30" y="60" width="140" height="80" fill="#8B4513" rx="5"/>
  
  <!-- Marquee lights -->
  <circle cx="35" cy="65" r="3" fill="#FFD700"/>
  <circle cx="50" cy="65" r="3" fill="#FFD700"/>
  <circle cx="65" cy="65" r="3" fill="#FFD700"/>
  <circle cx="80" cy="65" r="3" fill="#FFD700"/>
  <circle cx="95" cy="65" r="3" fill="#FFD700"/>
  <circle cx="110" cy="65" r="3" fill="#FFD700"/>
  <circle cx="125" cy="65" r="3" fill="#FFD700"/>
  <circle cx="140" cy="65" r="3" fill="#FFD700"/>
  <circle cx="155" cy="65" r="3" fill="#FFD700"/>
  <circle cx="165" cy="65" r="3" fill="#FFD700"/>
  
  <!-- Bottom lights -->
  <circle cx="35" cy="135" r="3" fill="#FFD700"/>
  <circle cx="50" cy="135" r="3" fill="#FFD700"/>
  <circle cx="65" cy="135" r="3" fill="#FFD700"/>
  <circle cx="80" cy="135" r="3" fill="#FFD700"/>
  <circle cx="95" cy="135" r="3" fill="#FFD700"/>
  <circle cx="110" cy="135" r="3" fill="#FFD700"/>
  <circle cx="125" cy="135" r="3" fill="#FFD700"/>
  <circle cx="140" cy="135" r="3" fill="#FFD700"/>
  <circle cx="155" cy="135" r="3" fill="#FFD700"/>
  <circle cx="165" cy="135" r="3" fill="#FFD700"/>
  
  <!-- Side lights -->
  <circle cx="35" cy="85" r="3" fill="#FFD700"/>
  <circle cx="35" cy="100" r="3" fill="#FFD700"/>
  <circle cx="35" cy="115" r="3" fill="#FFD700"/>
  <circle cx="165" cy="85" r="3" fill="#FFD700"/>
  <circle cx="165" cy="100" r="3" fill="#FFD700"/>
  <circle cx="165" cy="115" r="3" fill="#FFD700"/>
  
  <!-- Popcorn container -->
  <path d="M75 85 L125 85 L120 125 L80 125 Z" fill="#DC143C" stroke="#8B0000" stroke-width="2"/>
  
  <!-- White stripes -->
  <rect x="82" y="85" width="6" height="40" fill="#F5F5DC"/>
  <rect x="96" y="85" width="6" height="40" fill="#F5F5DC"/>
  <rect x="110" y="85" width="6" height="40" fill="#F5F5DC"/>
  
  <!-- Popcorn kernels -->
  <circle cx="90" cy="78" r="4" fill="url(#popcornGrad)"/>
  <circle cx="100" cy="75" r="5" fill="url(#popcornGrad)"/>
  <circle cx="110" cy="78" r="4" fill="url(#popcornGrad)"/>
  <circle cx="95" cy="70" r="3" fill="url(#popcornGrad)"/>
  <circle cx="105" cy="72" r="4" fill="url(#popcornGrad)"/>
  
  <!-- Evil eyes -->
  <ellipse cx="90" cy="95" rx="4" ry="6" fill="#000"/>
  <ellipse cx="110" cy="95" rx="4" ry="6" fill="#000"/>
  <circle cx="90" cy="93" r="1.5" fill="#FFF"/>
  <circle cx="110" cy="93" r="1.5" fill="#FFF"/>
  
  <!-- Evil grin -->
  <path d="M95 108 Q100 115 105 108" stroke="#000" stroke-width="2" fill="none"/>
  
  <!-- Film strip coming out -->
  <rect x="102" y="112" width="20" height="6" fill="#000" rx="1"/>
  <rect x="104" y="113" width="1.5" height="4" fill="#FFF"/>
  <rect x="107" y="113" width="1.5" height="4" fill="#FFF"/>
  <rect x="110" y="113" width="1.5" height="4" fill="#FFF"/>
  <rect x="113" y="113" width="1.5" height="4" fill="#FFF"/>
  <rect x="116" y="113" width="1.5" height="4" fill="#FFF"/>
</svg>