<svg viewBox="0 0 48 48" xmlns="http://www.w3.org/2000/svg">
  <defs>
    <linearGradient id="containerGrad" x1="0%" y1="0%" x2="0%" y2="100%">
      <stop offset="0%" stop-color="#DC2626"/>
      <stop offset="100%" stop-color="#991B1B"/>
    </linearGradient>
    <linearGradient id="popcornGrad" x1="0%" y1="0%" x2="0%" y2="100%">
      <stop offset="0%" stop-color="#FED7AA"/>
      <stop offset="50%" stop-color="#FDBA74"/>
      <stop offset="100%" stop-color="#FB923C"/>
    </linearGradient>
  </defs>
  
  <!-- Main popcorn container -->
  <path d="M14 20 L34 20 L32 36 L16 36 Z" fill="url(#containerGrad)" stroke="#7F1D1D" stroke-width="1"/>
  
  <!-- White stripes -->
  <rect x="18" y="20" width="2" height="16" fill="#FECACA"/>
  <rect x="23" y="20" width="2" height="16" fill="#FECACA"/>
  <rect x="28" y="20" width="2" height="16" fill="#FECACA"/>
  
  <!-- Popcorn kernels - minimal and geometric -->
  <circle cx="20" cy="16" r="2.5" fill="url(#popcornGrad)" opacity="0.95"/>
  <circle cx="24" cy="14" r="3" fill="url(#popcornGrad)" opacity="0.95"/>
  <circle cx="28" cy="16" r="2.5" fill="url(#popcornGrad)" opacity="0.95"/>
  <circle cx="22" cy="11" r="2" fill="url(#popcornGrad)" opacity="0.9"/>
  <circle cx="26" cy="12" r="2.5" fill="url(#popcornGrad)" opacity="0.9"/>
  
  <!-- Minimal evil eyes -->
  <ellipse cx="21" cy="26" rx="2" ry="2.5" fill="#000"/>
  <ellipse cx="27" cy="26" rx="2" ry="2.5" fill="#000"/>
  <circle cx="21" cy="25" r="0.8" fill="#FFF"/>
  <circle cx="27" cy="25" r="0.8" fill="#FFF"/>
  
  <!-- Sleek film strip -->
  <rect x="24" y="30" width="8" height="3" fill="#000" rx="0.5"/>
  <rect x="25" y="30.5" width="0.8" height="2" fill="#FFF"/>
  <rect x="26.5" y="30.5" width="0.8" height="2" fill="#FFF"/>
  <rect x="28" y="30.5" width="0.8" height="2" fill="#FFF"/>
  <rect x="29.5" y="30.5" width="0.8" height="2" fill="#FFF"/>
</svg>